<?xml version="1.0" encoding="utf-8"?>
<!-- Generator: Adobe Illustrator 27.5.0, SVG Export Plug-In . SVG Version: 6.00 Build 0)  -->
<svg version="1.1" id="Capa_2" xmlns="http://www.w3.org/2000/svg" xmlns:xlink="http://www.w3.org/1999/xlink" x="0px" y="0px"
	 viewBox="0 0 2122 2122" style="enable-background:new 0 0 2122 2122;" xml:space="preserve">
<path style="fill:#F7C4D6;" d="M1872.371,886.336c-60.005-91.43-182.139-140.511-311.108-125.006
	c-16.599,1.995-33.155,5.047-49.206,9.077c-84.755,21.269-166.119,62.022-235.355,103.958c4.183-4.57,8.354-9.189,12.51-13.854
	c33.664-37.783,60.986-72.611,83.529-106.477c95.812-143.942,112.767-298.876,45.352-414.448
	c-60.611-103.912-186.948-160.287-300.426-134.09c-106.55,24.621-194.877,122.18-225.023,248.548
	c-3.879,16.251-6.748,32.84-8.529,49.308c-7.135,65.9-3.934,139.006,9.807,222.105c-26.409-37.891-51.81-70.105-77.396-98.18
	C696.908,495.992,546.719,440.575,414.821,479.006C296.241,513.561,208.66,625.4,206.575,744.94
	c-1.959,112.266,73.291,224.514,191.702,285.966c15.225,7.903,31.042,14.887,47.013,20.757
	c61.213,22.51,131.391,37.218,213.006,44.546c-49.279,14.724-91.564,30.287-129.232,47.559
	c-161.445,74.031-259.917,200.231-263.417,337.583c-3.15,123.471,76.753,240.918,189.995,279.264
	c106.351,36.017,236.168-1.533,330.725-95.647c12.158-12.102,23.623-25.047,34.073-38.475
	c36.015-46.268,68.256-101.42,97.53-167.028c-1.871,19.712-3.014,38.528-3.454,56.674c-4.21,172.862,64.141,312.935,182.833,374.694
	c40.631,21.142,85.63,31.374,130.322,31.371c72.692-0.005,144.546-27.077,195.301-78.304c76.97-77.686,99.6-207.332,57.657-330.289
	c-5.399-15.82-11.825-31.379-19.101-46.248c-30.049-61.398-73.508-123.447-132.18-188.57
	c42.304,16.142,80.624,28.219,116.794,36.824c168.226,40.029,319.432,2.263,404.499-101.011
	C1927.126,1121.753,1936.263,983.695,1872.371,886.336z"/>
<path style="fill:#EC7DA3;" d="M1630.197,1019.423c-26.388-68.935-100.014-105.771-172.32-110.271
	c-10.453-0.651-20.975-0.655-31.484,0.007c-95.295,5.991-194.805,47.856-281.905,89.77l0.019,0.103
	c-2.318-3.293-4.786-6.484-7.398-9.558c-2.261-2.66-4.631-5.232-7.106-7.706h0.063c12.554-10.281,24.758-21.016,36.629-32.128
	c0.698-1.606,1.744-3.089,3.131-4.328c7.197-6.427,14.395-13.031,21.587-19.801c0.987-1.003,1.973-2.008,2.955-3.016
	c19.703-20.221,38.608-41.616,55.276-64.587c52.264-72.028,83.533-172.385,39.301-259.995
	c-33.436-66.226-108.038-109.246-179.12-98.031c-72.911,11.503-124.229,75.877-143.641,145.674
	c-2.806,10.09-4.994,20.382-6.529,30.799c-13.566,92.045,5.357,195.076,27.539,287.166l0.023,0.003
	c-6.375,3.807-12.424,8.192-18.052,13.093c-1.34,1.167-2.656,2.363-3.947,3.588c1.301-1.235,2.625-2.444,3.976-3.621
	c-0.54-1.662-1.059-3.314-1.556-4.95c-3.182-10.466-6.359-21.051-9.511-31.737c-10.332-24.13-22.028-47.725-34.744-70.763
	c-13.644-24.718-28.641-49.012-45.796-71.622c-53.789-70.896-140.778-129.908-237.446-112.966
	c-73.074,12.807-135.869,71.74-145.737,143.02c-10.122,73.116,36.617,140.888,97.793,179.696c8.844,5.61,18.06,10.687,27.585,15.175
	c58.598,27.613,126.857,41.695,194.836,49.546c37.338,4.312,74.592,6.745,110.113,8.505c0.829,0.042,1.666,0.077,2.51,0.107
	l0.096,1.072c-42.959-0.357-86.006,3.785-128.545,11.003c-27.836,4.723-55.717,10.865-82.722,19.597
	c-84.674,27.382-169.085,90.026-184.99,186.871c-12.023,73.208,22.889,151.932,86.921,184.767
	c65.681,33.681,145.08,11.923,201.9-33.021c8.214-6.497,16.048-13.522,23.428-21.032c66.006-67.173,111.756-163.059,148.336-251.418
	l0.801,0.408c4.102,2.055,8.291,3.847,12.548,5.385c-13.154,32.267-23.761,65.645-32.385,99.536
	c-6.963,27.361-12.648,55.34-15.608,83.566c-9.282,88.506,13.779,191.062,95.868,244.85c62.054,40.66,148.172,40.647,204.14-4.584
	c57.41-46.396,69.696-127.8,51.635-197.959c-2.611-10.142-5.858-20.151-9.734-29.941c-26.019-65.735-71.456-127.592-120.397-183.644
	c-12.932-14.812-26.108-29.218-39.236-43.183l-0.003,0.002c5.888-6.139,11.098-12.938,15.467-20.342l0.003,0.017
	c25.153,20.81,51.881,39.818,79.576,57.309c23.871,15.076,48.724,29.127,74.655,40.664c81.308,36.173,185.971,45.927,262.49-15.528
	C1629.327,1168.536,1655.923,1086.628,1630.197,1019.423z"/>
<path style="fill:#35B6B3;" d="M1169.253,1067.677c-2.179-28.201-13.448-56.205-32.143-78.202
	c-16.798-19.766-39.59-34.681-67.173-40.53c-36.401-7.718-73.515,3.933-100.771,27.673c-10.883,9.479-20.195,20.883-27.26,33.753
	c-8.386,15.272-13.241,31.983-14.67,48.906c-2.787,33.007,7.466,66.821,30.011,92.35c10.412,11.789,22.38,20.785,35.219,27.217
	c43.25,21.668,96.371,14.216,133.102-13.745C1153.916,1143.519,1172.502,1109.727,1169.253,1067.677z"/>
<path style="fill:#1FA6A3;" d="M1155.898,1130.582c0.647-1.15,1.274-2.314,1.88-3.493c0.303-0.589,0.602-1.182,0.894-1.778
	c0.837-1.703,1.63-3.435,2.379-5.194l0.502-1.199l0.154-0.382l0.333-0.825l0.182-0.467l0.289-0.742l0.226-0.599l0.226-0.603
	l0.242-0.668l0.199-0.552l0.242-0.694l0.188-0.543l0.245-0.731l0.162-0.486l0.248-0.768l0.154-0.486l0.243-0.782l0.137-0.45
	l0.252-0.852l0.113-0.39l0.249-0.883l0.102-0.368l0.247-0.916l0.091-0.346l0.245-0.955l0.072-0.291l0.247-1.014l0.053-0.228
	l0.25-1.081l0.039-0.177l0.242-1.109l0.052-0.251c0.203-0.968,0.394-1.944,0.572-2.926l0.055-0.299l0.15-0.867l0.057-0.336
	l0.143-0.876l0.051-0.327l0.141-0.926l0.002-0.016c0.099-0.677,0.192-1.356,0.279-2.037l0.036-0.278l0.098-0.81l0.051-0.439
	l0.091-0.825l0.047-0.458l0.077-0.78l0.052-0.568l0.063-0.712l0.053-0.671l0.088-1.215l0.041-0.612l0.043-0.753l0.028-0.527
	l0.037-0.79l0.021-0.521l0.03-0.824l0.016-0.595l0.02-0.784l0.011-0.71l0.01-0.65c0.004-0.463,0.006-0.926,0.005-1.39
	c-0.008-2.992-0.129-6.03-0.367-9.112l-0.001-0.016c-0.038-0.495-0.08-0.99-0.124-1.485l-0.033-0.36l-0.116-1.205l-0.03-0.3
	c-1.672-16.187-6.36-32.215-13.668-47.02c0.032,0.498,0.101,1.013,0.128,1.508c2.075,39.105-14.632,78.017-42.724,104.99
	c-29.202,28.038-68.533,42.329-108.905,38.681c-18.181-1.643-35.262-6.968-50.418-15.622c1.093,1.376,2.165,2.766,3.309,4.11
	l0.525,0.607l0.053,0.061c2.921,3.307,5.965,6.394,9.116,9.267c7.842,7.15,16.349,12.972,25.287,17.54l0.815,0.411
	c2.681,1.344,5.4,2.574,8.151,3.695c0.792,0.323,1.587,0.637,2.385,0.942c0.664,0.254,1.331,0.502,1.998,0.743
	c1.041,0.377,2.086,0.738,3.135,1.084c0.495,0.164,0.99,0.323,1.487,0.48c3.131,0.987,6.292,1.842,9.476,2.565
	c0.582,0.132,1.164,0.26,1.748,0.384c0.527,0.112,1.054,0.22,1.582,0.324c0.607,0.12,1.214,0.235,1.822,0.346
	c2.365,0.431,4.74,0.792,7.122,1.083c0.67,0.082,1.339,0.159,2.009,0.229l1.26,0.127c1.108,0.106,2.217,0.197,3.326,0.274
	c1.544,0.106,3.089,0.185,4.635,0.234c0.751,0.024,1.504,0.042,2.255,0.053l1.16,0.012c1.138,0.006,2.276-0.002,3.414-0.026
	c0.556-0.012,1.112-0.028,1.668-0.047l0.474-0.018l1.274-0.054l0.414-0.02c0.529-0.027,1.058-0.056,1.586-0.089l0.078-0.004
	c0.602-0.038,1.204-0.08,1.806-0.127c0.623-0.048,1.245-0.101,1.868-0.159l0.289-0.026c0.628-0.059,1.256-0.121,1.883-0.189
	c1.13-0.122,2.257-0.259,3.382-0.411c0.75-0.101,1.5-0.208,2.248-0.322c2.244-0.342,4.479-0.741,6.701-1.197
	c0.652-0.134,1.302-0.274,1.951-0.418l0.56-0.125c0.539-0.121,1.077-0.246,1.614-0.374l0.542-0.13
	c0.545-0.132,1.09-0.269,1.632-0.408l0.637-0.165c0.626-0.164,1.251-0.33,1.874-0.502c0.562-0.156,1.123-0.317,1.683-0.48
	l0.501-0.148c0.453-0.134,0.905-0.271,1.356-0.41l0.355-0.108c0.534-0.166,1.068-0.336,1.599-0.508
	c0.692-0.224,1.381-0.453,2.069-0.689c0.713-0.244,1.423-0.495,2.132-0.751c1.771-0.641,3.527-1.319,5.266-2.034l1.042-0.434
	c1.386-0.584,2.761-1.191,4.125-1.822c0.682-0.315,1.361-0.636,2.037-0.963l1.011-0.495c0.673-0.333,1.343-0.672,2.009-1.015
	c1.125-0.581,2.241-1.177,3.347-1.79c1.106-0.613,2.203-1.242,3.288-1.887c0.724-0.43,1.444-0.867,2.159-1.311
	c0.636-0.395,1.267-0.795,1.895-1.201l0.939-0.613c1.638-1.08,3.25-2.197,4.833-3.351c0.527-0.385,1.052-0.774,1.573-1.167
	s1.039-0.79,1.554-1.192c1.029-0.802,2.045-1.621,3.047-2.456c0.501-0.418,0.999-0.839,1.493-1.265
	c2.54-2.189,4.988-4.483,7.329-6.881l1.157-1.206l0.65-0.689l0.814-0.883l0.607-0.665l0.928-1.048l0.464-0.527
	c0.462-0.534,0.921-1.072,1.374-1.614c0.597-0.716,1.185-1.44,1.765-2.171c0.58-0.731,1.15-1.47,1.711-2.217
	c0.449-0.597,0.892-1.199,1.33-1.806l0.651-0.914c1.51-2.14,2.945-4.339,4.302-6.596l0.429-0.721l0.148-0.25
	C1155.245,1131.729,1155.574,1131.157,1155.898,1130.582z"/>
<path style="fill:#FFFFFF;" d="M1013.512,985.77c-20.411,15.313-28.743,38.676-18.61,52.182
	c10.133,13.506,34.894,12.04,55.305-3.274c20.411-15.313,28.743-38.677,18.61-52.182
	C1058.684,968.99,1033.923,970.456,1013.512,985.77z"/>
<path style="fill:#FFFFFF;" d="M993.585,1051.891c-8.213-6.518-22.798-1.813-32.578,10.509c-9.779,12.322-11.05,27.595-2.837,34.114
	c8.213,6.518,22.798,1.813,32.578-10.509C1000.528,1073.682,1001.798,1058.409,993.585,1051.891z"/>
<path style="fill:#F4A9C8;" d="M713.9,1586.713c-73.513,39.085-162.036,64.632-244.718,42.258
	c-94.579-25.592-165.15-115.404-168.724-213.168c-5.955,21.626-9.306,43.757-9.878,66.188
	c-2.875,112.826,69.907,220.068,173.062,254.996c97.459,33.011,217.225-2.215,305.127-89.7c11.43-11.379,22.193-23.53,31.986-36.112
	c37.222-47.825,70.368-105.699,100.392-175.474C849.688,1497.507,784.576,1549.137,713.9,1586.713z"/>
<path style="fill:#F4A9C8;" d="M1851.514,900.024h-0.003c-54.845-83.576-167.593-128.299-287.276-113.927
	c-15.539,1.866-31.052,4.728-46.109,8.507c-63.374,15.904-125.078,43.248-181.047,73.765
	c76.143-16.301,156.568-16.786,232.876-3.305c79.76,14.091,162.912,47.552,212.875,114.24
	c56.929,75.986,57.422,186.536,2.236,263.567c17.163-12.841,32.682-27.567,46.318-44.122
	C1901.1,1114.111,1909.566,988.479,1851.514,900.024z"/>
<path style="fill:#712222;" d="M1074.663,1404.483c-1.302,10.824,20.792,7.798,21.942-1.758
	c8.678-72.131,2.62-145.733-17.538-215.391l-1.27,0.314l-0.542,0.13c-0.537,0.128-1.075,0.253-1.614,0.374l-0.56,0.125
	c-0.649,0.144-1.3,0.284-1.951,0.418c-2.222,0.456-4.456,0.855-6.701,1.197c-0.748,0.114-1.497,0.222-2.248,0.322
	c-1.125,0.152-2.252,0.289-3.382,0.411c-0.627,0.068-1.255,0.13-1.883,0.189l-0.289,0.026c-0.623,0.057-1.245,0.111-1.868,0.159
	C1077.026,1260.004,1083.286,1332.81,1074.663,1404.483z"/>
<path style="fill:#712222;" d="M1171.968,1264.317c16.911,12.809,34.59,24.561,52.899,35.274
	c11.108,6.499,21.163-10.742,10.072-17.231c-47.969-28.067-91.506-63.748-128.359-105.363c-0.486,0.248-0.974,0.494-1.464,0.736
	l-1.011,0.495c-0.676,0.327-1.355,0.647-2.037,0.963c-1.363,0.631-2.739,1.238-4.125,1.822l-1.042,0.434
	c-1.739,0.715-3.495,1.393-5.266,2.034c-0.708,0.256-1.419,0.507-2.132,0.751c-0.688,0.236-1.378,0.464-2.069,0.689l-0.135,0.045
	C1112.613,1214.256,1141.019,1240.873,1171.968,1264.317z"/>
<path style="fill:#712222;" d="M1169.499,1083.02l-0.028,0.527l-0.043,0.753l-0.041,0.612l-0.088,1.215l-0.053,0.671l-0.063,0.712
	l-0.052,0.568l-0.077,0.78l-0.047,0.458l-0.091,0.825l-0.051,0.439l-0.098,0.81l-0.036,0.278c-0.088,0.682-0.18,1.361-0.279,2.037
	l-0.002,0.016l-0.141,0.926l-0.051,0.327l-0.143,0.876l-0.057,0.336l-0.15,0.867l-0.055,0.299c-0.178,0.981-0.369,1.957-0.572,2.926
	l-0.041,0.201c60.911,10.946,119.73,32.679,173.394,64.123c5.748,3.368,15.286,0.546,20.481-2.684
	c4.302-2.675,8.34-7.954,2.512-11.368c-59.513-34.871-125.845-58.281-194.079-68.527l-0.01,0.207L1169.499,1083.02z"/>
<path style="fill:#712222;" d="M1313.634,985.535c3.943-2.882,5.195-8.31,1.07-11.568c-4.347-3.434-11.529-1.742-15.575,1.215
	c-40.822,29.83-85.869,53.519-133.42,70.373c1.297,5.251,2.284,10.564,2.948,15.899c31.294-10.802,61.618-24.417,90.456-40.743
	C1277.946,1010.049,1296.163,998.302,1313.634,985.535z"/>
<path style="fill:#712222;" d="M1185.47,820.743c12.567-16.136,26.079-31.504,40.406-46.097c3.545-3.61,1.756-8.373-2.669-9.959
	c-5.146-1.845-11.638,0.343-15.334,4.109c-51.894,52.858-92.891,116.455-119.39,185.642c6.364,2.479,12.405,5.471,18.107,8.908
	C1125.308,912.12,1151.974,863.754,1185.47,820.743z"/>
<path style="fill:#712222;" d="M1079.834,951.449c-2.446-61.742-15.463-122.965-38.754-180.463
	c-1.696-4.186-15.909,0.29-14.457,3.874c22.352,55.178,35.31,113.867,38.443,173.131c1.634,0.269,3.268,0.575,4.9,0.921
	C1073.328,949.626,1076.617,950.474,1079.834,951.449z"/>
<path style="fill:#712222;" d="M849.861,899.332c-12.172-16.697-23.398-34.102-33.505-52.126
	c-4.227-7.539-25.209-0.473-21.685,5.811c36,64.202,84.653,120.763,143.204,165.425c1.246-2.74,2.598-5.445,4.059-8.104
	c1.682-3.063,3.492-6.043,5.42-8.934C910.55,971.898,877.693,937.51,849.861,899.332z"/>
<path style="fill:#712222;" d="M759.543,1018.087c-3.185,0.324-6.218,6.498-7.438,8.955c-0.51,1.026-3.593,7.495-0.702,7.2
	c59.522-6.056,119.706-1.944,177.681,11.822c1.121-5.818,2.66-11.571,4.621-17.208
	C876.782,1015.893,817.808,1012.16,759.543,1018.087z"/>
<path style="fill:#712222;" d="M738.473,1206.77c-4.354,0.665-8.194,8.5-9.919,11.94c-0.628,1.252-4.753,10.184-0.936,9.6
	c73.064-11.166,143.541-37.568,206.078-76.967c5.2-3.276,10.337-6.646,15.415-10.101c-2.404-3.422-4.614-6.954-6.634-10.577
	c-44.128,27.85-92.263,49.185-142.696,63.074C779.619,1199.293,759.144,1203.611,738.473,1206.77z"/>
<path style="fill:#712222;" d="M869.347,1327.482c-2.322,8.801,19.638,5.823,21.789-2.328
	c15.466-58.627,41.067-114.308,75.256-164.293c-3.151-2.873-6.195-5.959-9.116-9.267l-0.053-0.061l-0.525-0.607
	c-0.829-0.953-1.646-1.915-2.442-2.892c-26.56,36.799-48.51,76.883-65.192,119.219
	C881.312,1286.93,874.741,1307.033,869.347,1327.482z"/>
<path style="fill:#FFFFFF;" d="M1343.52,443.738c1.952,1.031,4.741,2.297,8.088,3.424c3.347,1.141,7.252,2.112,11.435,2.807
	c1.577,0.259,3.201,0.452,4.842,0.612c0.151,1.728,0.333,3.439,0.579,5.099c0.654,4.39,1.583,8.488,2.672,12
	c1.077,3.512,2.29,6.439,3.277,8.488c0.474,1.025,0.959,1.829,1.242,2.378c0.303,0.549,0.497,0.842,0.497,0.842
	s0.195-0.293,0.498-0.842c0.282-0.548,0.768-1.353,1.241-2.378c0.988-2.049,2.201-4.976,3.277-8.488
	c1.089-3.512,2.017-7.61,2.672-12c0.245-1.655,0.426-3.36,0.577-5.082c1.641-0.158,3.266-0.348,4.843-0.606
	c4.183-0.687,8.088-1.661,11.435-2.804c3.347-1.13,6.136-2.403,8.088-3.439c0.976-0.497,1.743-1.007,2.266-1.303
	c0.523-0.318,0.802-0.522,0.802-0.522s-0.279-0.205-0.802-0.522c-0.523-0.296-1.29-0.806-2.266-1.303
	c-1.952-1.036-4.741-2.309-8.088-3.439c-3.347-1.143-7.251-2.117-11.435-2.804c-1.582-0.259-3.213-0.45-4.859-0.608
	c-0.152-1.722-0.336-3.426-0.583-5.081c-0.662-4.39-1.588-8.488-2.674-12c-1.074-3.512-2.281-6.439-3.263-8.488
	c-0.47-1.024-0.955-1.829-1.235-2.378c-0.301-0.549-0.495-0.841-0.495-0.841s-0.193,0.292-0.495,0.841
	c-0.28,0.549-0.764,1.354-1.235,2.378c-0.982,2.048-2.189,4.976-3.263,8.488c-1.087,3.512-2.012,7.61-2.674,12
	c-0.248,1.66-0.432,3.37-0.585,5.098c-1.646,0.16-3.276,0.353-4.858,0.613c-4.183,0.695-8.088,1.666-11.435,2.806
	c-3.347,1.127-6.136,2.393-8.088,3.424c-0.976,0.494-1.743,1.002-2.266,1.296c-0.523,0.316-0.802,0.519-0.802,0.519
	s0.279,0.202,0.802,0.519C1341.777,442.736,1342.544,443.244,1343.52,443.738z"/>
<path style="fill:#FFFFFF;" d="M476.859,1462.717c0.814-0.494,1.248-0.812,1.248-0.812s-0.434-0.318-1.248-0.813
	c-0.814-0.461-2.008-1.254-3.527-2.027c-3.038-1.613-7.378-3.593-12.586-5.352c-5.209-1.779-11.285-3.295-17.795-4.363
	c-2.462-0.403-4.999-0.7-7.561-0.946c-0.237-2.68-0.523-5.332-0.908-7.906c-1.03-6.832-2.47-13.209-4.162-18.674
	c-1.671-5.465-3.549-10.021-5.077-13.208c-0.732-1.594-1.486-2.847-1.921-3.701c-0.469-0.854-0.77-1.31-0.77-1.31
	s-0.301,0.456-0.77,1.31c-0.435,0.854-1.189,2.107-1.921,3.701c-1.528,3.188-3.406,7.743-5.077,13.208
	c-1.691,5.466-3.132,11.842-4.162,18.674c-0.386,2.583-0.672,5.244-0.91,7.933c-2.562,0.249-5.098,0.549-7.559,0.954
	c-6.51,1.081-12.586,2.593-17.794,4.367c-5.208,1.754-9.549,3.724-12.587,5.328c-1.519,0.768-2.712,1.56-3.527,2.016
	c-0.814,0.492-1.247,0.808-1.247,0.808s0.434,0.316,1.247,0.808c0.814,0.456,2.008,1.248,3.527,2.016
	c3.038,1.604,7.378,3.575,12.587,5.328c5.208,1.775,11.284,3.286,17.794,4.368c2.454,0.403,4.981,0.703,7.534,0.952
	c0.235,2.689,0.518,5.351,0.901,7.935c1.018,6.832,2.463,13.208,4.158,18.674c1.676,5.466,3.563,10.02,5.099,13.208
	c0.737,1.594,1.493,2.847,1.932,3.7c0.471,0.855,0.774,1.31,0.774,1.31s0.303-0.455,0.774-1.31c0.44-0.854,1.195-2.106,1.932-3.7
	c1.537-3.188,3.424-7.743,5.099-13.208c1.695-5.466,3.14-11.842,4.158-18.674c0.382-2.575,0.664-5.229,0.899-7.909
	c2.554-0.246,5.082-0.542,7.536-0.943c6.51-1.069,12.586-2.585,17.795-4.363c5.208-1.759,9.549-3.739,12.586-5.351
	C474.851,1463.971,476.044,1463.177,476.859,1462.717z"/>
<path style="fill:#FFFFFF;" d="M1273.546,1709.426c-2.611-1.386-6.341-3.088-10.818-4.599c-4.476-1.529-9.698-2.832-15.293-3.75
	c-2.116-0.346-4.296-0.602-6.499-0.813c-0.204-2.303-0.45-4.583-0.78-6.795c-0.886-5.872-2.124-11.353-3.577-16.05
	c-1.436-4.698-3.05-8.612-4.364-11.353c-0.629-1.37-1.277-2.446-1.651-3.181c-0.403-0.734-0.662-1.126-0.662-1.126
	s-0.259,0.392-0.661,1.126c-0.374,0.734-1.022,1.811-1.651,3.181c-1.314,2.74-2.928,6.655-4.364,11.353
	c-1.453,4.697-2.691,10.178-3.577,16.05c-0.332,2.219-0.578,4.507-0.782,6.818c-2.202,0.214-4.381,0.472-6.497,0.82
	c-5.595,0.929-10.818,2.229-15.294,3.754c-4.476,1.507-8.206,3.2-10.817,4.579c-1.306,0.661-2.332,1.341-3.031,1.733
	c-0.699,0.423-1.073,0.694-1.073,0.694s0.373,0.271,1.073,0.694c0.699,0.393,1.725,1.073,3.031,1.733
	c2.611,1.379,6.341,3.072,10.817,4.579c4.476,1.525,9.699,2.824,15.294,3.753c2.108,0.347,4.281,0.604,6.475,0.818
	c0.202,2.312,0.445,4.599,0.774,6.821c0.876,5.872,2.117,11.351,3.574,16.049c1.44,4.698,3.062,8.612,4.382,11.352
	c0.634,1.37,1.283,2.447,1.661,3.181c0.405,0.734,0.666,1.125,0.666,1.125s0.26-0.392,0.666-1.125
	c0.378-0.734,1.027-1.811,1.66-3.181c1.321-2.74,2.943-6.654,4.383-11.352c1.456-4.698,2.698-10.178,3.574-16.049
	c0.328-2.214,0.571-4.495,0.772-6.798c2.195-0.211,4.368-0.466,6.477-0.81c5.595-0.919,10.817-2.222,15.293-3.75
	c4.477-1.511,8.206-3.214,10.818-4.599c1.306-0.665,2.331-1.347,3.031-1.743c0.699-0.424,1.073-0.698,1.073-0.698
	s-0.373-0.273-1.073-0.699C1275.878,1710.772,1274.852,1710.09,1273.546,1709.426z"/>
<path style="fill:#FFFFFF;" d="M1806.154,1088.575c-0.699-0.396-1.726-1.078-3.031-1.743c-2.611-1.386-6.342-3.088-10.818-4.599
	c-4.476-1.528-9.699-2.832-15.294-3.75c-2.116-0.345-4.296-0.601-6.499-0.812c-0.204-2.303-0.449-4.583-0.78-6.796
	c-0.885-5.872-2.123-11.352-3.577-16.049c-1.436-4.698-3.05-8.612-4.364-11.352c-0.629-1.37-1.277-2.447-1.651-3.181
	c-0.403-0.733-0.661-1.125-0.661-1.125s-0.258,0.392-0.662,1.125c-0.374,0.734-1.022,1.811-1.651,3.181
	c-1.313,2.74-2.927,6.654-4.363,11.352c-1.453,4.698-2.692,10.178-3.577,16.049c-0.331,2.22-0.577,4.507-0.781,6.818
	c-2.202,0.214-4.382,0.472-6.497,0.82c-5.595,0.93-10.818,2.228-15.294,3.754c-4.476,1.507-8.206,3.201-10.818,4.58
	c-1.305,0.661-2.331,1.34-3.03,1.733c-0.7,0.422-1.073,0.694-1.073,0.694s0.373,0.271,1.073,0.694
	c0.699,0.393,1.725,1.073,3.03,1.733c2.611,1.378,6.341,3.072,10.818,4.579c4.476,1.526,9.699,2.825,15.294,3.754
	c2.109,0.346,4.281,0.604,6.475,0.818c0.201,2.311,0.446,4.599,0.774,6.82c0.875,5.872,2.117,11.352,3.574,16.05
	c1.44,4.697,3.062,8.612,4.383,11.353c0.634,1.37,1.283,2.446,1.66,3.18c0.405,0.734,0.666,1.126,0.666,1.126
	s0.261-0.391,0.666-1.126c0.378-0.734,1.027-1.81,1.661-3.18c1.321-2.74,2.943-6.655,4.382-11.353
	c1.457-4.697,2.699-10.178,3.574-16.05c0.328-2.213,0.571-4.494,0.772-6.798c2.195-0.211,4.368-0.465,6.477-0.81
	c5.595-0.919,10.818-2.222,15.294-3.75c4.476-1.511,8.206-3.214,10.818-4.599c1.305-0.665,2.331-1.347,3.031-1.743
	c0.699-0.425,1.072-0.698,1.072-0.698S1806.854,1089,1806.154,1088.575z"/>
<path style="fill:#FFFFFF;" d="M1721.438,1000.17c2.238-0.755,4.103-1.606,5.409-2.299c0.653-0.332,1.165-0.673,1.515-0.872
	l0.536-0.349l-0.536-0.349c-0.35-0.199-0.863-0.539-1.515-0.872c-1.306-0.693-3.171-1.544-5.409-2.299
	c-2.238-0.764-4.849-1.416-7.647-1.875c-1.058-0.173-2.148-0.301-3.249-0.407c-0.102-1.151-0.225-2.291-0.39-3.397
	c-0.443-2.936-1.062-5.676-1.788-8.025c-0.718-2.349-1.525-4.306-2.182-5.676c-0.315-0.685-0.639-1.223-0.826-1.591l-0.331-0.562
	l-0.331,0.562c-0.188,0.367-0.511,0.906-0.826,1.591c-0.657,1.37-1.464,3.327-2.182,5.676c-0.726,2.349-1.345,5.089-1.788,8.025
	c-0.166,1.11-0.289,2.254-0.391,3.409c-1.101,0.107-2.191,0.236-3.248,0.41c-2.798,0.464-5.409,1.114-7.647,1.877
	c-2.238,0.753-4.104,1.6-5.409,2.289c-0.653,0.33-1.166,0.67-1.516,0.866l-0.536,0.348l0.536,0.347
	c0.35,0.196,0.863,0.536,1.516,0.866c1.305,0.689,3.17,1.536,5.409,2.289c2.238,0.763,4.849,1.412,7.647,1.877
	c1.054,0.174,2.14,0.302,3.237,0.41c0.101,1.155,0.222,2.299,0.387,3.41c0.438,2.936,1.059,5.676,1.786,8.024
	c0.72,2.349,1.531,4.306,2.191,5.676c0.317,0.685,0.642,1.223,0.831,1.59l0.333,0.563l0.333-0.563
	c0.189-0.367,0.513-0.906,0.83-1.59c0.66-1.37,1.471-3.328,2.191-5.676c0.728-2.349,1.349-5.089,1.787-8.024
	c0.164-1.107,0.285-2.247,0.386-3.399c1.098-0.106,2.184-0.233,3.238-0.405C1716.588,1001.586,1719.199,1000.935,1721.438,1000.17z"
	/>
<path style="fill:#FFFFFF;" d="M1203.151,1792.218c-1.256-0.667-3.05-1.485-5.204-2.212c-2.153-0.735-4.665-1.363-7.357-1.804
	c-1.018-0.166-2.067-0.289-3.126-0.391c-0.098-1.108-0.216-2.205-0.375-3.269c-0.426-2.825-1.022-5.46-1.721-7.721
	c-0.69-2.26-1.467-4.143-2.099-5.461c-0.302-0.659-0.614-1.177-0.794-1.53l-0.318-0.541l-0.318,0.541
	c-0.18,0.353-0.491,0.871-0.794,1.53c-0.632,1.318-1.408,3.201-2.099,5.461c-0.699,2.26-1.295,4.896-1.72,7.721
	c-0.16,1.068-0.278,2.168-0.376,3.28c-1.06,0.103-2.108,0.227-3.126,0.395c-2.692,0.447-5.204,1.072-7.357,1.806
	c-2.153,0.725-3.948,1.54-5.203,2.203c-0.628,0.317-1.122,0.645-1.458,0.833l-0.516,0.334l0.516,0.334
	c0.337,0.189,0.83,0.516,1.458,0.834c1.256,0.663,3.05,1.478,5.203,2.203c2.153,0.733,4.665,1.359,7.357,1.806
	c1.014,0.167,2.059,0.291,3.115,0.394c0.097,1.112,0.214,2.213,0.372,3.281c0.422,2.824,1.019,5.461,1.719,7.721
	c0.693,2.26,1.473,4.143,2.108,5.461c0.305,0.659,0.617,1.177,0.799,1.53l0.32,0.542l0.32-0.542c0.181-0.353,0.494-0.871,0.798-1.53
	c0.636-1.318,1.416-3.201,2.109-5.461c0.701-2.26,1.298-4.896,1.719-7.721c0.158-1.065,0.274-2.162,0.371-3.27
	c1.056-0.102,2.101-0.224,3.116-0.39c2.692-0.443,5.204-1.069,7.357-1.804c2.154-0.727,3.948-1.546,5.204-2.213
	c0.628-0.319,1.121-0.648,1.458-0.838l0.516-0.336l-0.516-0.336C1204.273,1792.866,1203.779,1792.537,1203.151,1792.218z"/>
<path style="fill:#FFFFFF;" d="M494.762,654.365c0.987-2.049,2.2-4.976,3.277-8.488c1.089-3.512,2.018-7.61,2.672-12.001
	c0.245-1.655,0.427-3.36,0.577-5.082c1.641-0.158,3.266-0.348,4.844-0.606c4.183-0.687,8.088-1.661,11.435-2.804
	c3.347-1.13,6.136-2.402,8.088-3.439c0.976-0.497,1.743-1.007,2.266-1.303c0.523-0.318,0.802-0.522,0.802-0.522
	s-0.279-0.205-0.802-0.523c-0.523-0.296-1.29-0.806-2.266-1.303c-1.952-1.036-4.742-2.308-8.088-3.439
	c-3.347-1.143-7.252-2.117-11.435-2.804c-1.583-0.258-3.212-0.45-4.859-0.608c-0.153-1.722-0.336-3.426-0.583-5.08
	c-0.662-4.39-1.587-8.488-2.674-12c-1.074-3.513-2.28-6.439-3.263-8.488c-0.47-1.024-0.955-1.829-1.235-2.378
	c-0.301-0.548-0.494-0.841-0.494-0.841s-0.194,0.293-0.495,0.841c-0.28,0.549-0.764,1.354-1.235,2.378
	c-0.982,2.049-2.189,4.976-3.263,8.488c-1.086,3.512-2.012,7.61-2.674,12c-0.247,1.659-0.432,3.37-0.584,5.097
	c-1.646,0.16-3.276,0.353-4.858,0.614c-4.183,0.695-8.088,1.666-11.435,2.806c-3.347,1.127-6.136,2.393-8.089,3.424
	c-0.976,0.494-1.743,1.002-2.266,1.296c-0.523,0.316-0.802,0.519-0.802,0.519s0.279,0.203,0.802,0.519
	c0.523,0.293,1.29,0.802,2.266,1.296c1.953,1.03,4.741,2.297,8.089,3.424c3.346,1.14,7.251,2.112,11.435,2.807
	c1.577,0.259,3.201,0.452,4.842,0.612c0.15,1.728,0.332,3.439,0.579,5.099c0.655,4.391,1.583,8.488,2.672,12.001
	c1.077,3.512,2.29,6.439,3.277,8.488c0.473,1.024,0.959,1.829,1.241,2.378c0.303,0.549,0.498,0.842,0.498,0.842
	s0.195-0.293,0.497-0.842C493.802,656.194,494.288,655.39,494.762,654.365z"/>
<path style="fill:#FFFFFF;" d="M1325.043,507.724c0.816,0.43,1.981,0.96,3.379,1.43c1.399,0.477,3.03,0.883,4.778,1.173
	c0.659,0.108,1.337,0.188,2.023,0.255c0.063,0.722,0.139,1.437,0.241,2.13c0.274,1.835,0.662,3.547,1.117,5.014
	c0.45,1.468,0.957,2.691,1.37,3.547l0.518,0.993l0.208,0.352l0.208-0.352l0.519-0.993c0.413-0.856,0.92-2.079,1.369-3.547
	c0.455-1.467,0.843-3.179,1.117-5.014c0.102-0.691,0.178-1.403,0.241-2.123c0.685-0.066,1.365-0.146,2.023-0.253
	c1.748-0.287,3.38-0.694,4.778-1.171c1.399-0.473,2.564-1.004,3.38-1.437l0.947-0.544l0.335-0.218l-0.335-0.218l-0.947-0.544
	c-0.816-0.433-1.981-0.965-3.38-1.437c-1.398-0.478-3.03-0.885-4.778-1.171c-0.661-0.108-1.342-0.188-2.03-0.254
	c-0.064-0.719-0.14-1.432-0.244-2.123c-0.277-1.834-0.664-3.546-1.118-5.013c-0.448-1.468-0.953-2.691-1.363-3.547l-0.516-0.994
	l-0.206-0.352l-0.207,0.352l-0.516,0.994c-0.41,0.856-0.915,2.079-1.364,3.547c-0.453,1.467-0.841,3.179-1.117,5.013
	c-0.104,0.694-0.181,1.408-0.245,2.13c-0.688,0.067-1.368,0.148-2.03,0.256c-1.748,0.29-3.379,0.697-4.778,1.173
	c-1.398,0.471-2.563,1-3.379,1.431l-0.947,0.541l-0.335,0.217l0.335,0.217L1325.043,507.724z"/>
<path style="fill:#FFFFFF;" d="M491.741,1555.974c-0.816-0.433-1.981-0.965-3.379-1.437c-1.398-0.478-3.03-0.885-4.778-1.172
	c-0.661-0.108-1.342-0.188-2.03-0.254c-0.064-0.719-0.141-1.432-0.244-2.123c-0.276-1.834-0.664-3.546-1.118-5.014
	c-0.448-1.467-0.952-2.691-1.363-3.546l-0.516-0.994l-0.207-0.352l-0.207,0.352l-0.516,0.994c-0.411,0.856-0.915,2.079-1.363,3.546
	c-0.454,1.468-0.841,3.179-1.117,5.014c-0.103,0.693-0.18,1.408-0.244,2.13c-0.688,0.067-1.369,0.148-2.029,0.256
	c-1.748,0.29-3.38,0.696-4.778,1.172c-1.398,0.471-2.564,1-3.38,1.431l-0.947,0.541l-0.335,0.216l0.335,0.217l0.947,0.541
	c0.816,0.431,1.981,0.96,3.38,1.431c1.398,0.477,3.03,0.882,4.778,1.173c0.659,0.108,1.337,0.189,2.022,0.256
	c0.064,0.722,0.139,1.437,0.242,2.13c0.273,1.834,0.661,3.546,1.116,5.014c0.45,1.468,0.956,2.691,1.369,3.547l0.519,0.993
	l0.208,0.352l0.208-0.352l0.519-0.993c0.413-0.856,0.919-2.079,1.369-3.547c0.455-1.468,0.843-3.18,1.117-5.014
	c0.102-0.692,0.178-1.404,0.241-2.123c0.686-0.066,1.365-0.146,2.024-0.253c1.748-0.287,3.38-0.694,4.778-1.172
	c1.398-0.472,2.563-1.004,3.379-1.437l0.947-0.544l0.335-0.219l-0.335-0.218L491.741,1555.974z"/>
<path style="fill:#712222;" d="M1872.369,886.338c-60.004-91.43-182.136-140.48-311.105-125.009
	c-16.582,1.993-33.138,5.047-49.208,9.079c-84.753,21.269-166.121,62.025-235.357,103.961c4.183-4.572,8.356-9.191,12.512-13.856
	c33.664-37.778,60.986-72.606,83.532-106.477c95.812-143.939,112.765-298.874,45.352-414.448
	c-60.616-103.915-186.957-160.302-300.426-134.09c-106.548,24.618-194.877,122.18-225.025,248.548
	c-3.878,16.251-6.748,32.84-8.528,49.308c-7.133,65.905-3.934,139.011,9.807,222.105c-26.41-37.888-51.808-70.102-77.393-98.18
	C696.909,496,546.736,440.585,414.819,479.008C296.24,513.564,208.662,625.403,206.576,744.942
	c-1.961,112.263,73.286,224.511,191.7,285.966c15.228,7.903,31.045,14.887,47.016,20.757
	c61.216,22.51,131.396,37.218,213.006,44.546c-49.282,14.723-91.564,30.285-129.233,47.559
	c-161.442,74.027-259.917,200.226-263.42,337.583c-3.147,123.474,76.758,240.92,189.998,279.264
	c106.346,36.017,236.17-1.532,330.725-95.649c12.173-12.119,23.637-25.062,34.073-38.472c36.014-46.27,68.255-101.427,97.53-167.035
	c-1.871,19.715-3.013,38.534-3.454,56.682c-4.209,172.865,64.139,312.935,182.831,374.694
	c40.631,21.143,85.63,31.374,130.324,31.372c72.689-0.005,144.545-27.08,195.301-78.307c76.969-77.686,99.6-207.33,57.654-330.285
	c-5.391-15.805-11.817-31.366-19.101-46.251c-30.049-61.396-73.508-123.447-132.177-188.57
	c42.3,16.141,80.618,28.219,116.794,36.824c168.212,40.024,319.43,2.266,404.499-101.011
	C1927.124,1121.751,1936.262,983.695,1872.369,886.338z M1831.385,1198.749c-13.636,16.555-29.155,31.28-46.318,44.122
	c-82.112,61.439-201.86,79.723-333.153,48.48c-38.423-9.14-79.466-22.365-125.478-40.431c-13.608-5.342-27.167-10.911-40.305-16.551
	c-5.471-2.36-11.844-0.504-15.211,4.409c-0.455,0.665-0.836,1.36-1.147,2.077c-1.995,4.581-1.078,10.021,2.529,13.701
	c20.611,21.04,39.612,41.689,57.065,62.028c47.789,55.691,83.964,109.059,109.75,161.747c6.823,13.942,12.845,28.521,17.898,43.338
	c38.916,114.068,18.596,233.658-51.764,304.672c-74.468,75.16-199.125,92.979-296.392,42.365
	c-19.024-9.899-36.651-22.02-52.777-36.14c-77.154-67.556-119.913-180.893-116.629-315.816c0.96-39.488,5.369-82.385,13.484-131.142
	c1.513-9.109,3.118-18.204,4.813-27.281c1.196-6.407-2.74-12.653-9.035-14.339l-0.881-0.201c-0.786-0.151-1.573-0.225-2.35-0.225
	c-5.172,0-9.966,3.237-11.759,8.334c-10.452,29.683-21.296,57.583-32.579,83.805c-30.024,69.775-63.17,127.649-100.392,175.474
	c-9.793,12.582-20.556,24.733-31.986,36.112c-87.902,87.486-207.668,122.711-305.127,89.7
	c-103.155-34.928-175.937-142.17-173.062-254.996c0.572-22.43,3.922-44.562,9.878-66.188
	c27.928-101.412,113.236-191.688,239.004-249.359c36.926-16.933,78.553-32.214,127.259-46.716
	c24.088-7.172,48.11-13.646,71.401-19.247c6.068-1.459,10.124-7.179,9.493-13.389c-0.055-0.543-0.147-1.075-0.269-1.594
	c-1.271-5.417-6.033-9.42-11.726-9.609c-29.359-0.974-57.328-2.756-84.005-5.359c-75.589-7.374-140.787-21.344-197.715-42.278
	c-14.989-5.508-29.837-12.066-44.134-19.484C299.69,951.639,229.721,848.25,231.516,745.376
	c1.9-108.892,81.924-210.843,190.28-242.417c21.542-6.276,43.642-9.816,66.054-10.721c105.105-4.242,217.049,49.568,310.24,151.839
	c27.359,30.026,54.577,65.033,83.208,107.023c8.911,13.07,17.608,26.278,25.842,39.264c2.845,4.478,8.149,6.606,13.184,5.506
	c0.696-0.152,1.386-0.364,2.063-0.641c5.591-2.282,8.743-8.241,7.486-14.146c-5.888-27.632-10.707-54.161-14.467-79.684
	c-10.694-72.591-12.806-137.019-6.493-195.361c1.671-15.425,4.358-30.972,7.992-46.204
	c27.971-117.233,108.979-207.525,206.38-230.029c103.062-23.817,218.007,27.632,273.259,122.353
	c10.805,18.524,19.244,38.181,25.345,58.727c29.196,98.31,4.871,216.979-69.913,329.328c-21.89,32.887-48.514,66.809-81.394,103.705
	c-25.992,29.173-52.536,56.524-79.17,81.593c-7.192,6.77-14.39,13.374-21.587,19.801c-1.386,1.239-2.433,2.722-3.131,4.328
	c-1.785,4.112-1.278,9.035,1.691,12.755l0.4,0.476c4.196,4.758,11.353,5.615,16.577,1.909
	c41.268-29.346,93.376-64.603,151.715-96.413c55.969-30.517,117.673-57.861,181.047-73.765c15.057-3.779,30.57-6.641,46.109-8.507
	c119.683-14.373,232.431,30.351,287.276,113.927h0.003C1909.566,988.479,1901.1,1114.111,1831.385,1198.749z"/>
<path style="fill:#F4A9C8;" d="M1396.545,352.159c-55.252-94.721-170.197-146.171-273.259-122.353
	c-97.4,22.505-178.409,112.797-206.38,230.029c-3.635,15.232-6.322,30.779-7.992,46.204c-6.314,58.342-4.201,122.77,6.493,195.361
	c8.636-60.046,27.18-119.204,53.431-174.053c17.255,7.105,29.271-18.187,36.292-31.305c30.936-57.798,83.707-97.332,142.891-107.047
	c16.684-2.738,34.076-3.287,49.412-10.491c15.337-7.205,28.628-23.163,28.092-43.345c-0.201-7.567-2.374-14.972-5.864-21.675
	c78.092-5.289,157.847,31.894,202.229,97.403C1415.789,390.34,1407.351,370.682,1396.545,352.159z"/>
<path style="fill:#FFFFFF;" d="M1199.922,291.488c-13.77-8.993-29.518-11.27-44.556-11.147
	c-52.628,0.432-101.208,28.459-136.437,70.576c-27.803,33.238-55.435,81.15-64.093,128.75c-2.567,14.114-2.695,38.487,11.79,46.605
	c0.747,0.419,1.485,0.775,2.213,1.075c17.255,7.105,29.271-18.187,36.292-31.305c30.936-57.798,83.707-97.332,142.891-107.047
	c16.684-2.738,34.076-3.287,49.412-10.491c15.337-7.205,28.628-23.163,28.092-43.345c-0.201-7.567-2.374-14.972-5.864-21.675
	C1214.949,304.43,1207.833,296.655,1199.922,291.488z"/>
<path style="fill:#F4A9C8;" d="M1457.016,1521.67c-5.052-14.816-11.074-29.396-17.898-43.338
	c-25.786-52.689-61.962-106.056-109.75-161.747c21.07,47.171,35.722,97.631,43.973,148.87c-5.681-3.039-11.747-4.478-17.705-2.909
	c-20.446,5.386-10.917,33.58-6.677,48.496c17.926,63.058,7.457,128.158-28.347,176.276c-10.093,13.564-22.218,26.046-28.238,41.884
	c-6.02,15.839-4.486,36.551,9.925,50.69c1.265,1.242,2.604,2.401,4.002,3.48c-63.347,65.379-166.62,85.766-250.217,49.195
	c16.126,14.12,33.753,26.241,52.777,36.14c97.267,50.614,221.924,32.794,296.392-42.365
	C1475.612,1755.328,1495.931,1635.738,1457.016,1521.67z"/>
<path style="fill:#FFFFFF;" d="M1351.059,1793.499c16.151-3.104,29.057-12.411,39.784-22.951
	c37.54-36.886,52.992-90.801,49.054-145.567c-3.109-43.223-16.539-96.876-43.395-137.119c-5.008-7.505-13.532-17.256-23.161-22.407
	c-5.681-3.039-11.747-4.478-17.705-2.909c-20.446,5.386-10.917,33.58-6.677,48.496c17.926,63.058,7.457,128.158-28.347,176.276
	c-10.093,13.564-22.218,26.046-28.238,41.884c-6.02,15.839-4.486,36.551,9.925,50.69c1.265,1.242,2.604,2.401,4.002,3.48
	C1318.93,1793.125,1336.517,1796.292,1351.059,1793.499z"/>
<path style="fill:#F4A9C8;" d="M468.97,955.138l0.62-0.59c14.97-14.932-7.439-34.518-18.601-45.282
	c-47.189-45.506-70.856-107.049-64.086-166.643c1.909-16.799,6.118-33.683,3.363-50.402c-2.755-16.719-14.491-33.854-34.056-38.835
	c-4.216-1.073-8.559-1.504-12.895-1.386c19.108-72.035,73.497-134.185,144.535-159.762c-22.412,0.904-44.513,4.445-66.054,10.721
	c-108.356,31.574-188.38,133.525-190.28,242.417c-1.795,102.874,68.173,206.262,178.251,263.393
	c14.297,7.418,29.145,13.976,44.134,19.484c56.928,20.933,122.125,34.904,197.715,42.278
	C584.803,1043.439,522.444,1003.408,468.97,955.138z"/>
<path style="fill:#FFFFFF;" d="M284.358,705.965c-13.917,50.756-0.18,105.133,30.75,150.501
	c24.41,35.805,62.986,75.44,106.428,96.735c12.659,6.205,35.492,12.839,47.434,1.937l0.62-0.59
	c14.97-14.932-7.439-34.518-18.601-45.282c-47.189-45.506-70.856-107.049-64.086-166.643c1.909-16.799,6.118-33.683,3.363-50.402
	c-2.755-16.719-14.491-33.854-34.056-38.835c-4.216-1.073-8.559-1.504-12.895-1.386c-13.394,0.363-26.728,5.971-36.098,14.129
	C294.814,676.93,288.334,691.463,284.358,705.965z"/>
</svg>
